HIERARCHY
ROOT Hips
{
    OFFSET 0.000000 0.000000 0.000000
    CHANNELS 6 Xposition Yposition Zposition Zrotation Xrotation Yrotation
    JOINT Spine
    {
        OFFSET -0.000000 7.246840 0.000000
        CHANNELS 3 Zrotation Xrotation Yrotation
        JOINT Spine1
        {
            OFFSET -0.000000 20.289354 0.000000
            CHANNELS 3 Zrotation Xrotation Yrotation
            JOINT Neck
            {
                OFFSET -0.000000 20.206032 1.836912
                CHANNELS 3 Zrotation Xrotation Yrotation
                JOINT Head
                {
                    OFFSET -0.000000 12.372654 -1.767522
                    CHANNELS 3 Zrotation Xrotation Yrotation
                    End Site
                    {
                        OFFSET -0.000000 22.094025 0.000000
                    }
                }
            }
            JOINT LeftShoulder
            {
                OFFSET 3.465871 17.201674 -0.568930
                CHANNELS 3 Zrotation Xrotation Yrotation
                JOINT LeftArm
                {
                    OFFSET 14.070313 0.000000 0.000000
                    CHANNELS 3 Zrotation Xrotation Yrotation
                    JOINT LeftForeArm
                    {
                        OFFSET 26.549477 0.000000 0.000000
                        CHANNELS 3 Zrotation Xrotation Yrotation
                        JOINT LeftHand
                        {
                            OFFSET 18.880413 0.000000 0.000000
                            CHANNELS 3 Zrotation Xrotation Yrotation
                            End Site
                            {
                                OFFSET 13.256415 0.000000 0.000000
                            }
                        }
                    }
                }
            }
            JOINT RightShoulder
            {
                OFFSET -3.526370 17.201674 -0.568930
                CHANNELS 3 Zrotation Xrotation Yrotation
                JOINT RightArm
                {
                    OFFSET -14.070313 0.000000 0.000000
                    CHANNELS 3 Zrotation Xrotation Yrotation
                    JOINT RightForeArm
                    {
                        OFFSET -26.549477 0.000000 0.000000
                        CHANNELS 3 Zrotation Xrotation Yrotation
                        JOINT RightHand
                        {
                            OFFSET -18.880413 0.000000 0.000000
                            CHANNELS 3 Zrotation Xrotation Yrotation
                            End Site
                            {
                                OFFSET -13.256415 0.000000 0.000000
                            }
                        }
                    }
                }
            }
        }
    }
    JOINT LeftUpLeg
    {
        OFFSET 8.837609 0.000000 0.000000
        CHANNELS 3 Zrotation Xrotation Yrotation
        JOINT LeftLeg
        {
            OFFSET -0.000000 -41.345005 0.000000
            CHANNELS 3 Zrotation Xrotation Yrotation
            JOINT LeftFoot
            {
                OFFSET -0.000000 -35.500874 0.000000
                CHANNELS 3 Zrotation Xrotation Yrotation
                JOINT LeftToeBase
                {
                    OFFSET -0.000000 -5.744446 13.256415
                    CHANNELS 3 Zrotation Xrotation Yrotation
                    End Site
                    {
                        OFFSET -0.000000 0.000000 3.535044
                    }
                }
            }
        }
    }
    JOINT RightUpLeg
    {
        OFFSET -8.837609 0.000000 0.000000
        CHANNELS 3 Zrotation Xrotation Yrotation
        JOINT RightLeg
        {
            OFFSET -0.000000 -41.345005 0.000000
            CHANNELS 3 Zrotation Xrotation Yrotation
            JOINT RightFoot
            {
                OFFSET -0.000000 -35.500874 0.000000
                CHANNELS 3 Zrotation Xrotation Yrotation
                JOINT RightToeBase
                {
                    OFFSET -0.000000 -5.744446 13.256415
                    CHANNELS 3 Zrotation Xrotation Yrotation
                    End Site
                    {
                        OFFSET -0.000000 0.000000 3.535044
                    }
                }
            }
        }
    }
}
MOTION
Frames:    5
Frame Time:    0.010000
2.403144    82.827721    -48.695698    2.323473    -0.549019    -20.659258    1.760167    -12.022204    -1.427271    -16.657639    6.725254    -0.626990    21.616974    26.121712    -40.468803    12.270148    -26.831976    -35.717232    13.497136    8.635296    3.933836    -81.533852    45.454231    -4.119722    4.652193    -24.860174    -31.951185    -55.435696    -23.257395    -0.804759    -18.727386    -3.779039    4.403811    -7.015746    3.076056    22.199312    -0.829372    5.285032    2.036177    -7.233223    4.859262    6.987387    -3.789509    7.996665    8.244682    -0.946007    -0.907496    2.102214    3.677607    -3.489800    2.922189    -1.686905    -4.855961    2.434347    -5.873297    0.411232    8.164488    4.550687    1.588320    6.434494    6.309105    -3.933205    2.151771    -1.719260    -1.444186    3.131774    
2.364582    82.820053    -48.677475    2.313473    -0.525558    -20.727852    1.712386    -11.991612    -1.426287    -16.497366    6.654583    -0.640435    21.689384    26.226053    -40.346817    12.030329    -27.455671    -35.574486    13.545657    8.862480    3.796117    -81.906975    44.884396    -4.074245    4.819056    -24.571255    -32.113216    -55.236897    -22.981802    -0.667441    -18.892397    -3.323580    3.954175    -6.566344    2.578698    22.031059    -1.318612    5.539613    2.938707    -9.369557    4.979837    7.262851    -3.766510    8.008739    8.262917    -0.950201    -0.925365    2.212128    3.713367    -3.494156    2.861114    -1.709926    -4.875609    2.467881    -5.839474    0.418645    8.232131    4.548513    1.550387    6.419155    6.636279    -3.554339    2.391164    -1.530197    -2.039367    2.806088    
2.330723    82.816376    -48.656208    2.314404    -0.508152    -20.741938    1.627502    -11.979829    -1.473234    -16.336840    6.603446    -0.695170    21.771151    26.359854    -40.218712    11.780642    -28.034872    -35.428280    13.545376    8.736040    3.878505    -82.449402    44.438648    -3.704672    4.924511    -24.329988    -32.134178    -55.148262    -22.756004    -0.570307    -18.741318    -2.972334    3.654451    -6.599360    2.588277    21.779472    -1.859857    5.797188    3.990747    -11.797438    5.105060    7.346589    -3.765605    8.022779    8.298692    -0.935121    -0.942251    2.314990    3.542924    -3.590255    2.859464    -1.569549    -4.769361    2.263728    -5.829721    0.447601    8.280402    4.574336    1.495091    6.387781    6.552103    -3.833577    2.153584    -1.648290    -1.746350    3.012666    
2.315877    82.818092    -48.645409    2.346917    -0.470490    -20.645311    1.475499    -12.000950    -1.612717    -16.097588    6.569221    -0.837914    21.748096    26.537659    -40.094872    11.572258    -28.573406    -35.279308    13.485468    8.830377    3.890575    -82.857254    43.889862    -3.541487    5.047841    -24.198206    -32.095211    -55.192516    -22.599556    -0.553117    -18.634365    -2.540701    3.459639    -6.887241    3.104274    21.553389    -2.341130    6.098999    4.863180    -14.917361    5.196046    7.678646    -3.781050    7.984961    8.240629    -0.894478    -0.953693    2.272541    3.532651    -3.572071    2.892928    -1.541303    -4.769367    2.222996    -5.864092    0.457815    8.238862    4.596929    1.433191    6.424456    6.346852    -3.638720    2.375376    -1.580753    -1.741026    2.889091    
2.285900    82.818108    -48.624439    2.364553    -0.419553    -20.615870    1.330804    -12.091660    -1.737198    -15.795167    6.580800    -0.964313    21.525074    26.733627    -39.956699    11.486332    -28.952726    -35.106121    13.384719    7.854742    4.353416    -83.901581    44.052258    -2.258670    5.059318    -24.235218    -31.885031    -55.262978    -22.619795    -0.600832    -18.427418    -1.493943    3.316797    -7.644037    3.333603    21.471033    -2.581107    6.153684    5.218761    -18.243565    4.882103    8.672196    -3.774362    7.979514    8.276151    -0.859661    -1.017443    2.160720    3.707646    -3.468768    2.862835    -1.674181    -4.864072    2.416116    -5.869426    0.458787    8.286660    4.641085    1.371692    6.364590    6.345225    -3.649463    2.376224    -1.558253    -1.689653    2.846344    
